<?xml version="1.0" encoding="UTF-8" standalone="no"?>
<!DOCTYPE svg PUBLIC "-//W3C//DTD SVG 1.1//EN" "http://www.w3.org/Graphics/SVG/1.1/DTD/svg11.dtd">
<svg width="100%" height="100%" viewBox="0 0 1080 1080" version="1.1" xmlns="http://www.w3.org/2000/svg" xmlns:xlink="http://www.w3.org/1999/xlink" xml:space="preserve" xmlns:serif="http://www.serif.com/" style="fill-rule:evenodd;clip-rule:evenodd;stroke-linejoin:round;stroke-miterlimit:2;">
    <rect x="-64" y="-71" width="1264" height="1250" style="fill:white;"/>
    <path d="M1200,-71L-64,-71L-64,1179L1200,1179L1200,-71ZM1189.58,-60.583L1189.58,1168.58C1189.58,1168.58 66.772,1168.58 -53.583,1168.58C-53.583,1168.58 -53.583,-60.583 -53.583,-60.583C-53.583,-60.583 1189.58,-60.583 1189.58,-60.583L1189.58,-60.583Z" style="fill:rgb(27,23,37);"/>
    <g transform="matrix(1.15104,0,0,1.10439,-91.3937,-81.7899)">
        <g>
            <g transform="matrix(0.981961,0.0771446,-0.0908408,1.1563,26.069,-106.113)">
                <path d="M297.981,331.773C256.411,352.088 252.334,396.607 264.662,437.714C285.943,508.674 325.747,578.319 374.5,632.862C398.66,659.892 439.05,689.274 479.353,675.901C508.222,666.321 529.07,636.648 545.239,612.51C554.316,598.958 562.789,584.988 570.987,570.891C604.492,513.278 662.817,421.487 595.847,364.429C548.249,323.875 491.195,352.876 465.03,401.65C454.627,421.042 451.788,443.357 446.967,464.765C444.723,474.731 445.094,496.635 439.622,496.318C432.014,495.877 427.925,472.636 425.062,462.187C413.809,421.112 402.635,342.017 349.413,328.067C335.338,324.378 326.627,321.695 297.981,331.773Z" style="fill:rgb(255,191,59);"/>
            </g>
            <g transform="matrix(1.18246,0,0,1.18246,-124.31,-95.1256)">
                <path d="M646.456,479.251C658.597,451.804 684.174,437.464 710.114,437.997C736.734,438.544 767.949,459.214 768.702,496.685C769.49,535.857 738.318,564.834 717.279,594.959C707.161,609.447 691.981,632.224 696.436,650.9C709.836,707.073 801.132,667.357 801.728,733.342C801.785,739.655 800.466,746.33 797.848,752.09C776.862,798.263 712.535,790.381 671.51,787.878C659.643,787.154 647.731,786.656 635.929,785.143C621.781,783.331 607.563,780.9 593.714,777.458C569.951,771.551 542.042,756.056 536.225,730.225C518.714,652.47 583.565,621.428 646.456,479.251Z" style="fill:rgb(255,191,59);"/>
            </g>
            <g transform="matrix(1.22222,0,0,1.22222,-280.719,-295.027)">
                <circle cx="884.5" cy="771.5" r="31.5" style="fill:rgb(255,191,59);"/>
            </g>
            <g transform="matrix(1,0,0,1,20,-20)">
                <g transform="matrix(0.981961,0.0771446,-0.0908408,1.1563,28.2303,-93.8053)">
                    <path d="M297.981,331.773C256.411,352.088 252.334,396.607 264.662,437.714C285.943,508.674 325.747,578.319 374.5,632.862C398.66,659.892 439.05,689.274 479.353,675.901C508.222,666.321 529.07,636.648 545.239,612.51C554.316,598.958 562.789,584.988 570.987,570.891C604.492,513.278 662.817,421.487 595.847,364.429C548.249,323.875 491.195,352.876 465.03,401.65C454.627,421.042 451.788,443.357 446.967,464.765C444.723,474.731 445.094,496.635 439.622,496.318C432.014,495.877 427.925,472.636 425.062,462.187C413.809,421.112 402.635,342.017 349.413,328.067C335.338,324.378 326.627,321.695 297.981,331.773ZM299.893,335.31C326.733,325.901 334.939,328.336 348.185,331.808C368.301,337.081 381.853,352.383 391.802,371.115C407.468,400.607 414.079,438.639 420.775,463.083C422.831,470.586 425.565,484.505 429.66,492.344C430.988,494.886 432.512,496.874 434.095,498.132C435.737,499.436 437.524,500.106 439.362,500.212C441.968,500.363 444.677,499.096 446.331,495.665C449.184,489.747 449.451,473.736 451.294,465.551C456.044,444.456 458.767,422.45 469.017,403.342C493.835,357.079 547.65,328.765 592.798,367.231C625.043,394.704 626.825,430.593 616.812,466.494C606.497,503.477 583.68,540.513 567.062,569.088C558.904,583.117 550.473,597.019 541.44,610.504C525.75,633.929 505.796,662.95 477.78,672.246C458.904,678.509 440.027,674.616 423.02,666.136C405.366,657.333 389.7,643.595 377.953,630.454C329.559,576.311 290.05,507.175 268.925,436.736C257.152,397.48 260.341,354.806 299.889,335.312L299.893,335.31Z" style="fill:rgb(27,23,37);"/>
                </g>
                <g transform="matrix(1.18246,0,0,1.18246,-122.31,-82.1256)">
                    <path d="M646.456,479.251C658.597,451.804 684.174,437.464 710.114,437.997C736.734,438.544 767.949,459.214 768.702,496.685C769.49,535.857 738.318,564.834 717.279,594.959C707.161,609.447 691.981,632.224 696.436,650.9C709.836,707.073 801.132,667.357 801.728,733.342C801.785,739.655 800.466,746.33 797.848,752.09C776.862,798.263 712.535,790.381 671.51,787.878C659.643,787.154 647.731,786.656 635.929,785.143C621.781,783.331 607.563,780.9 593.714,777.458C569.951,771.551 542.042,756.056 536.225,730.225C518.714,652.47 583.565,621.428 646.456,479.251ZM649.793,480.854C661.282,454.879 685.493,441.321 710.041,441.825C734.995,442.338 764.324,461.64 765.03,496.765C765.407,515.535 758.027,531.826 748.133,547.069C737.832,562.939 724.804,577.678 714.308,592.706C708.075,601.633 700,613.643 695.501,625.95C692.299,634.711 690.917,643.633 692.871,651.824C696.528,667.153 705.463,675.971 716.873,681.655C727.576,686.986 740.553,689.456 753.134,692.19C775.97,697.153 797.777,702.718 798.054,733.378C798.106,739.127 796.912,745.206 794.528,750.451C784.591,772.314 764.253,781.142 741.683,784.446C718.094,787.898 692.027,785.294 671.725,784.056C659.935,783.336 648.101,782.846 636.377,781.343C622.365,779.548 608.282,777.143 594.566,773.734C572.046,768.136 545.314,753.83 539.801,729.35C531.296,691.583 543.014,665.221 564.274,630.976C586.228,595.614 618.249,552.165 649.793,480.854L649.793,480.854Z" style="fill:rgb(27,23,37);"/>
                </g>
                <g transform="matrix(1.22222,0,0,1.22222,-285.719,-290.027)">
                    <path d="M884.5,740C901.885,740 916,754.115 916,771.5C916,788.885 901.885,803 884.5,803C867.115,803 853,788.885 853,771.5C853,754.115 867.115,740 884.5,740ZM884.5,743.704C899.884,743.704 912.446,756.116 912.446,771.5C912.446,786.884 899.884,799.296 884.5,799.296C869.116,799.296 856.554,786.884 856.554,771.5C856.554,756.116 869.116,743.704 884.5,743.704Z" style="fill:rgb(27,23,37);"/>
                </g>
            </g>
        </g>
    </g>
</svg>
